<svg width="51" height="51" viewBox="0 0 51 51" fill="none" xmlns="http://www.w3.org/2000/svg">
<rect width="51" height="51" fill="white"/>
<path d="M17.94 20.8C18.6738 20.8 19.391 20.5824 20.0011 20.1748C20.6113 19.7671 21.0868 19.1877 21.3676 18.5098C21.6484 17.8318 21.7218 17.0859 21.5787 16.3662C21.4355 15.6466 21.0822 14.9855 20.5633 14.4666C20.0445 13.9478 19.3834 13.5944 18.6638 13.4513C17.9441 13.3081 17.1981 13.3816 16.5202 13.6624C15.8423 13.9432 15.2629 14.4187 14.8552 15.0288C14.4476 15.6389 14.23 16.3562 14.23 17.09C14.2326 18.0731 14.6243 19.0153 15.3195 19.7105C16.0147 20.4056 16.9568 20.7974 17.94 20.8Z" fill="black"/>
<path d="M34 24C34.6722 23.999 35.3426 24.0694 36 24.21C36.338 24.2733 36.672 24.3567 37 24.46C37.3403 24.5674 37.6742 24.6943 38 24.84V12.62C38 11.6599 37.6186 10.7392 36.9397 10.0603C36.2608 9.38139 35.3401 9 34.38 9H11.62C10.6599 9 9.73915 9.38139 9.06027 10.0603C8.38139 10.7392 8 11.6599 8 12.62V31.38C8 32.3401 8.38139 33.2608 9.06027 33.9397C9.73915 34.6186 10.6599 35 11.62 35H24.05C24.05 34.67 24 34.34 24 34C24 33.66 24 33.33 24.05 33C24.2979 30.5334 25.4532 28.2468 27.2917 26.5838C29.1302 24.9208 31.5209 24 34 24ZM10 12.62C10.0026 12.1912 10.1741 11.7806 10.4774 11.4774C10.7806 11.1741 11.1912 11.0026 11.62 11H34.38C34.8088 11.0026 35.2194 11.1741 35.5226 11.4774C35.8259 11.7806 35.9974 12.1912 36 12.62V18.78C35.5856 18.5398 35.1464 18.3454 34.69 18.2C33.5009 17.8142 32.2286 17.7621 31.0119 18.0496C29.7953 18.337 28.6808 18.9528 27.79 19.83L22.86 24.68L22.18 24L21.65 23.49C20.7651 22.6293 19.5794 22.1477 18.345 22.1477C17.1106 22.1477 15.9249 22.6293 15.04 23.49L10 28.48V12.62Z" fill="black"/>
<path d="M38 27.07L37.44 26.78L37 26.59C36.6753 26.4528 36.3411 26.3392 36 26.25C35.75 26.19 35.51 26.14 35.26 26.1L34.91 26.05H34.51C34.3411 26.0233 34.1708 26.0066 34 26C33.7469 25.9848 33.4931 25.9848 33.24 26C32.9949 26.0186 32.7511 26.0519 32.51 26.1C32.2765 26.1413 32.046 26.1981 31.82 26.27C31.6421 26.3115 31.4681 26.3684 31.3 26.44C30.8115 26.6144 30.3423 26.839 29.9 27.11L29.58 27.32C29.1497 27.6111 28.7509 27.9462 28.39 28.32L28.12 28.6C27.8562 28.8811 27.6185 29.1857 27.41 29.51C27.35 29.59 27.3 29.68 27.24 29.77C26.8803 30.3401 26.5978 30.9555 26.4 31.6C26.33 31.81 26.28 32.02 26.23 32.24C26.18 32.46 26.14 32.68 26.11 32.9C26.1149 32.9231 26.1149 32.9469 26.11 32.97C26.03 33.6342 26.03 34.3057 26.11 34.97C26.4284 36.9273 27.4625 38.6966 29.0115 39.9347C30.5606 41.1727 32.5143 41.7913 34.4936 41.6705C36.473 41.5497 38.3369 40.698 39.7239 39.2807C41.1109 37.8634 41.922 35.9815 42 34C42.0085 32.5938 41.6425 31.2106 40.9395 29.9927C40.2365 28.7748 39.2219 27.766 38 27.07ZM34 40C32.4087 40 30.8826 39.3678 29.7574 38.2426C28.6322 37.1174 28 35.5913 28 34C28 32.4087 28.6322 30.8826 29.7574 29.7573C30.8826 28.6321 32.4087 28 34 28C34.7107 27.9993 35.4155 28.128 36.08 28.38C36.2439 28.4329 36.4043 28.4964 36.56 28.57L36.7 28.64C37.9066 29.247 38.8731 30.2433 39.4431 31.4678C40.0132 32.6923 40.1534 34.0733 39.841 35.3874C39.5287 36.7015 38.7821 37.8717 37.7221 38.7088C36.6621 39.5459 35.3507 40.0008 34 40Z" fill="black"/>
<path d="M37.11 30.92C37.017 30.8263 36.9064 30.7519 36.7846 30.7011C36.6627 30.6503 36.532 30.6242 36.4 30.6242C36.268 30.6242 36.1373 30.6503 36.0154 30.7011C35.8935 30.7519 35.7829 30.8263 35.69 30.92L34.11 32.6L32.54 31C32.4494 30.9041 32.3408 30.8271 32.2204 30.7732C32.1 30.7193 31.9701 30.6896 31.8383 30.6859C31.7064 30.6822 31.5751 30.7045 31.4519 30.7515C31.3286 30.7986 31.2158 30.8694 31.12 30.96C31.0241 31.0506 30.947 31.1592 30.8931 31.2796C30.8392 31.4 30.8096 31.5299 30.8059 31.6617C30.8022 31.7936 30.8245 31.9249 30.8715 32.0481C30.9185 32.1714 30.9894 32.2841 31.08 32.38L32.74 34.14L31.08 35.89C30.9862 35.983 30.9119 36.0936 30.8611 36.2154C30.8103 36.3373 30.7842 36.468 30.7842 36.6C30.7842 36.732 30.8103 36.8627 30.8611 36.9846C30.9119 37.1064 30.9862 37.217 31.08 37.31C31.2669 37.485 31.5139 37.5817 31.77 37.58C31.9064 37.5808 32.0415 37.5538 32.167 37.5005C32.2926 37.4472 32.4059 37.3687 32.5 37.27L34.07 35.59L35.65 37.27C35.7441 37.3687 35.8574 37.4472 35.9829 37.5005C36.1085 37.5538 36.2436 37.5808 36.38 37.58C36.6361 37.5817 36.883 37.485 37.07 37.31C37.1637 37.217 37.2381 37.1064 37.2889 36.9846C37.3396 36.8627 37.3658 36.732 37.3658 36.6C37.3658 36.468 37.3396 36.3373 37.2889 36.2154C37.2381 36.0936 37.1637 35.983 37.07 35.89L35.49 34.1L37.15 32.34C37.2411 32.2444 37.3125 32.1317 37.3598 32.0084C37.4072 31.8852 37.4297 31.7537 37.4259 31.6217C37.4222 31.4896 37.3924 31.3597 37.3382 31.2392C37.2839 31.1188 37.2064 31.0103 37.11 30.92Z" fill="black"/>
</svg>
